<svg width="180" height="180" viewBox="0 0 180 180" fill="none" xmlns="http://www.w3.org/2000/svg">
<path d="M10.6876 70.3125C12.6563 70.3125 14.6251 71.1562 15.8907 72.8438V70.7344H19.4063V87.0469H17.0157C16.4532 87.0469 15.8907 86.625 15.8907 85.9219V84.7969C14.6251 86.3438 12.797 87.3281 10.6876 87.3281C6.18759 87.1875 2.81259 83.5313 2.81259 79.0313V78.8906C2.67196 74.25 6.04696 70.4531 10.6876 70.3125ZM11.2501 73.5469C8.57821 73.5469 6.32821 75.7969 6.46884 78.4688V78.75C6.18759 81.4219 8.29696 83.8125 10.9688 83.9531C13.6407 84.2344 16.0313 82.125 16.172 79.4531V78.75C16.3126 76.0781 14.3438 73.8281 11.672 73.5469H11.2501ZM23.3438 70.5938H26.8595V72.7031C27.9845 71.0156 29.8126 70.0313 31.7813 70.1719C35.5782 70.1719 37.9688 72.8438 37.9688 76.9219V86.7656H35.5782C35.0157 86.7656 34.4532 86.3438 34.4532 85.6406V77.625C34.4532 75.0938 33.1876 73.5469 31.0782 73.5469C28.6876 73.5469 26.8595 75.375 26.8595 78.8906V86.9062H24.4688C23.9063 86.9062 23.3438 86.3438 23.3438 85.7813V70.5938V70.5938ZM48.6563 70.1719C50.6251 70.1719 52.5938 71.0156 53.8595 72.5625V62.2969H57.3751V86.625H55.1251C54.5626 86.625 54.0001 86.2031 54.0001 85.5V84.375C52.7345 85.9219 50.7657 86.9062 48.797 86.9062C44.297 86.7656 40.7813 82.9688 41.0626 78.6094V78.4688C40.7813 74.1094 44.1563 70.4531 48.6563 70.1719ZM49.5001 73.4063C46.8282 73.4063 44.5782 75.6563 44.7188 78.3281V78.6094C44.4376 81.2813 46.547 83.6719 49.2188 83.8125C51.8907 84.0937 54.2813 81.9844 54.422 79.3125V78.6094C54.5626 75.9375 52.5938 73.6875 49.922 73.4063H49.5001M61.5938 70.4531H65.1095V73.4063C65.672 71.5781 67.5001 70.3125 69.3282 70.3125C69.7501 70.3125 70.3126 70.3125 70.7345 70.4531V74.1094C70.172 73.9688 69.6095 73.8281 68.9063 73.8281C66.9376 73.8281 64.9688 75.5156 64.9688 78.75V86.625H62.4376C61.8751 86.625 61.3126 86.2031 61.3126 85.5L61.5938 70.4531V70.4531ZM80.4376 87.1875C75.797 87.1875 72.1407 83.3906 72.1407 78.75C72.1407 74.1094 75.9376 70.4531 80.5782 70.4531C85.2188 70.4531 88.8751 74.25 88.8751 78.8906C88.8751 83.3906 85.0782 87.1875 80.5782 87.1875H80.4376ZM80.4376 83.8125C83.1095 83.8125 85.3595 81.7031 85.3595 78.8906V78.75C85.3595 76.0781 83.1095 73.8281 80.4376 73.8281C77.7657 73.8281 75.5157 76.0781 75.5157 78.75C75.3751 81.4219 77.4845 83.6719 80.1563 83.8125H80.4376ZM93.6563 67.0781C92.3907 67.0781 91.2657 65.9531 91.2657 64.6875C91.2657 63.4219 92.3907 62.2969 93.6563 62.2969C94.922 62.2969 96.047 63.4219 96.047 64.6875C96.047 65.9531 94.922 67.0781 93.6563 67.0781ZM91.8282 70.5938H95.3438V86.7656H92.9532C92.672 86.7656 92.3907 86.625 92.1095 86.4844C91.9688 86.2031 91.8282 85.9219 91.8282 85.6406V70.5938ZM106.172 70.3125C108.281 70.3125 110.25 71.1562 111.516 72.8438V62.4375H115.031V86.7656H112.5C111.938 86.7656 111.375 86.3438 111.375 85.6406V84.5156C110.109 86.0625 108.281 87.0469 106.172 87.0469C101.672 86.9063 98.1563 83.25 98.297 78.75V78.6094C98.1563 74.1094 101.531 70.4531 106.172 70.3125C106.031 70.1719 106.031 70.1719 106.172 70.3125M106.734 73.4063C104.063 73.4063 101.953 75.6563 101.953 78.3281V78.6094C101.672 81.2813 103.781 83.6719 106.453 83.8125C109.125 84.0937 111.516 81.9844 111.656 79.3125V78.6094C111.797 75.9375 109.828 73.6875 107.156 73.4063H106.734ZM41.9063 112.078V104.203H38.5313V100.969H41.9063V96.4687H45.5626V100.969H50.2032V104.203H45.5626V111.516C45.5626 113.625 46.4063 114.328 48.3751 114.328C49.0782 114.328 49.6407 114.187 50.3438 114.047V117.281C49.5001 117.563 48.5157 117.703 47.672 117.703C44.8595 117.984 42.3282 116.016 42.047 113.203C41.9063 112.641 41.9063 112.359 41.9063 112.078V112.078ZM97.7345 109.125C97.7345 104.344 101.531 100.547 106.313 100.547C111.094 100.547 114.891 104.344 114.891 109.125C114.891 113.906 111.094 117.703 106.313 117.703C101.672 117.703 97.7345 114.047 97.7345 109.406V109.125V109.125ZM111.234 109.125C111.094 106.312 108.844 104.062 106.031 104.203C103.219 104.344 100.969 106.594 101.109 109.406C101.25 112.219 103.5 114.469 106.313 114.328C108.984 114.188 111.234 112.078 111.234 109.406V109.125ZM27.8438 112.359C28.1251 113.906 29.672 115.031 31.2188 114.75C32.7657 114.75 33.8907 114.047 33.8907 113.063C33.8907 112.078 33.1876 111.375 31.5001 110.953L28.8282 110.25C26.4376 109.828 24.6095 107.719 24.6095 105.328C24.6095 102.516 27.0001 100.687 30.6563 100.687C34.3126 100.687 36.5626 102.656 36.9845 105.609H33.4688C33.1876 104.344 32.0626 103.5 30.797 103.641C29.3907 103.641 28.4063 104.203 28.4063 105.328C28.4063 106.313 29.1095 106.875 30.6563 107.297L33.4688 108C36.422 108.703 37.8282 110.391 37.8282 112.922C37.8282 116.016 35.1563 117.703 31.3595 117.703C29.5313 117.703 27.8438 117.281 26.4376 116.156C25.172 115.312 24.3282 113.906 24.3282 112.359H27.8438V112.359ZM63.5626 115.031C62.5782 116.719 60.7501 117.703 58.7813 117.562C54.9845 117.562 52.7345 114.891 52.7345 110.672V100.828H56.3907V109.969C56.3907 112.641 57.5157 114.187 59.6251 114.187C62.0157 114.187 63.5626 112.219 63.5626 108.844V100.828H67.2188V117.141H63.5626V115.031V115.031ZM83.2501 115.031C81.9845 116.578 80.1563 117.562 78.1876 117.562C73.6876 117.422 70.172 113.766 70.3126 109.406V109.125C70.0313 104.766 73.547 100.969 77.9063 100.687H78.1876C80.1563 100.687 82.1251 101.531 83.3907 103.219V92.9531H86.9063V117.281H83.2501V115.031ZM75.2345 112.922C76.0782 113.906 77.3438 114.469 78.7501 114.469C80.0157 114.469 81.2813 113.906 82.2657 112.922C84.0938 110.813 84.0938 107.578 82.2657 105.469C81.422 104.484 80.1563 103.922 78.7501 103.922C77.4845 103.922 76.0782 104.344 75.2345 105.469C73.4063 107.578 73.4063 110.672 75.2345 112.922ZM92.672 92.6719C93.9376 92.8125 94.922 93.9375 94.922 95.2031C94.7813 96.3281 93.9376 97.3125 92.672 97.4531C91.8282 97.4531 90.9845 97.0313 90.5626 96.3281C90.1407 95.625 90.1407 94.6406 90.5626 93.9375C91.1251 93.2344 91.8282 92.6719 92.672 92.6719V92.6719ZM94.5001 100.969V117.281H90.9845V100.969H94.5001V100.969ZM136.828 69.3281H142.875C140.625 71.5781 139.359 74.25 138.938 77.4844H136.547C134.016 77.4844 132.188 75.5156 132.188 73.2656C132.328 71.0156 134.297 69.3281 136.828 69.3281ZM154.828 103.781C155.25 104.766 157.922 110.25 157.922 110.25H150.328C150.328 110.25 152.859 105.188 153.281 103.781C153.703 102.797 154.406 102.797 154.828 103.781V103.781Z" fill="#956BBE"/>
<path d="M177.047 82.8276C176.625 84.7964 174.516 86.2026 172.125 86.2026H169.875C169.734 86.2026 169.594 86.3433 169.734 86.4839V110.25H165.656L157.781 94.0776C158.625 93.2339 159.047 91.9683 159.047 90.7026C159.047 88.5933 157.781 86.6245 155.953 85.9214V83.6714C155.953 82.687 155.109 81.9839 154.266 81.9839H154.125C153.141 81.9839 152.438 82.8276 152.438 83.6714V85.7808C150.328 86.4839 148.922 88.4526 148.922 90.7026C148.922 92.1089 149.484 93.2339 150.328 94.2183L142.734 110.25H136.125C133.594 110.25 131.484 108.14 131.484 105.609V74.6714C131.484 74.6714 131.484 74.3901 131.484 74.6714C131.906 76.7808 133.734 78.4683 135.984 78.4683H170.437C170.437 78.4683 176.906 77.9058 177.047 82.8276V82.8276Z" fill="#956BBE"/>
<path d="M153.984 88.1719C155.391 88.1719 156.516 89.2969 156.516 90.7031C156.516 92.1094 155.391 93.2344 153.984 93.2344C152.578 93.2344 151.453 92.1094 151.453 90.7031C151.453 90 151.734 89.4375 152.156 88.875C152.719 88.4531 153.281 88.1719 153.984 88.1719ZM154.969 86.625V83.9531C154.969 83.6719 154.828 83.3906 154.547 83.25C154.125 82.9688 153.703 83.1094 153.422 83.5313C153.281 83.6719 153.281 83.8125 153.281 83.9531V86.625C151.031 86.9062 149.484 89.1562 149.766 91.4062C149.906 92.5312 150.469 93.5156 151.453 94.0781L142.031 114.469C141.609 115.172 141.75 116.016 142.172 116.719C142.875 117.703 144.281 117.984 145.266 117.281C145.547 117 145.828 116.719 146.109 116.297L152.438 102.656C152.859 101.812 153.984 101.391 154.828 101.812C155.25 101.953 155.531 102.234 155.672 102.656L162.141 116.156C162.703 117.281 163.969 117.703 165.094 117.141C166.219 116.578 166.641 115.312 166.078 114.187L156.234 93.7969C158.063 92.3906 158.344 89.7187 156.938 87.8906C156.656 87.4687 155.953 86.9062 154.969 86.625M161.297 67.2187L163.688 63.1406C163.828 62.8594 163.688 62.5781 163.547 62.4375C163.406 62.2969 163.125 62.4375 162.984 62.5781L160.453 66.7969C156.516 64.9688 152.016 64.9688 148.219 66.7969L145.828 62.5781C145.687 62.4375 145.547 62.2969 145.406 62.2969C145.266 62.2969 145.125 62.4375 144.984 62.5781C144.844 62.7188 144.844 63 144.984 63.1406L147.375 67.2187C143.438 69.3281 140.766 73.125 140.203 77.4844H168.75C167.906 73.125 165.234 69.3281 161.297 67.2187V67.2187ZM148.5 73.8281L148.359 73.9687C148.078 74.25 147.797 74.25 147.516 74.25C146.813 74.25 146.391 73.6875 146.25 73.125C146.25 72.8438 146.391 72.5625 146.672 72.2813C147.094 71.7188 147.797 71.7187 148.359 72.1406C148.922 72.5625 149.063 73.4063 148.5 73.8281V73.8281ZM160.875 74.3906C160.172 74.3906 159.609 73.9687 159.609 73.2656C159.609 72.9844 159.75 72.7031 160.031 72.4219C160.453 72 161.297 72 161.719 72.4219C162 72.7031 162 72.9844 162.141 73.2656C162 73.8281 161.438 74.3906 160.875 74.3906V74.3906ZM172.969 87.3281H171.141C171 87.3281 171 87.4687 171 87.6094V117.422C171 117.562 171.141 117.703 171.281 117.703H173.25C175.5 117.703 177.328 115.875 177.328 113.625V85.2187C177.328 84.0937 177.188 84.9375 177.047 85.0781C176.203 86.3437 174.656 87.3281 172.969 87.3281V87.3281Z" fill="#956BBE"/>
<path d="M153.984 92.1094C154.761 92.1094 155.391 91.4798 155.391 90.7031C155.391 89.9265 154.761 89.2969 153.984 89.2969C153.208 89.2969 152.578 89.9265 152.578 90.7031C152.578 91.4798 153.208 92.1094 153.984 92.1094Z" fill="#956BBE"/>
</svg>
