<svg width="46" height="50" viewBox="0 0 46 50" fill="none" xmlns="http://www.w3.org/2000/svg">
<g id="Behance" clip-path="url(#clip0_313_95)">
<g id="Behance_2">
<path id="Ellipse 30 (Stroke)" fill-rule="evenodd" clip-rule="evenodd" d="M23 47.9167C34.644 47.9167 44.0833 37.6565 44.0833 25C44.0833 12.3435 34.644 2.08333 23 2.08333C11.356 2.08333 1.91667 12.3435 1.91667 25C1.91667 37.6565 11.356 47.9167 23 47.9167ZM23 50C35.7026 50 46 38.8071 46 25C46 11.1929 35.7026 0 23 0C10.2975 0 0 11.1929 0 25C0 38.8071 10.2975 50 23 50Z" fill="black"/>
<g id="Group 80">
<path id="Vector" d="M12.2335 24.7092C12.2335 22.7896 12.3597 20.733 12.2335 18.8134C12.1074 17.5794 12.6119 17.031 13.7472 16.8939C15.6394 16.6196 17.5315 16.6196 19.4237 16.7567C22.4511 17.1681 23.8387 19.9103 22.7034 22.9268C22.325 23.7494 22.1988 24.1608 22.8295 24.9834C24.974 27.7257 23.8387 31.5648 20.6851 32.5246C18.2884 33.2102 15.6394 32.6617 13.2427 32.7988C12.3597 32.7988 12.2335 31.9762 12.2335 31.1535C12.1074 29.0968 12.1074 26.903 12.2335 24.7092ZM17.5315 26.903C17.2792 26.903 16.9008 26.903 16.5224 26.903C15.6394 26.903 15.0087 27.1772 15.1348 28.4112C15.261 29.371 15.5133 30.0566 16.5224 30.0566C17.4054 30.0566 18.2884 30.0566 19.1714 29.9195C20.0544 29.7824 20.8113 29.5081 20.559 28.2741C20.4328 27.3143 19.8021 26.7659 18.9191 26.7659C18.5407 26.7659 18.1622 26.7659 17.5315 26.903ZM17.4054 23.0639C17.91 22.9268 18.4145 22.9268 18.9191 22.7896C19.5498 22.6525 19.9283 22.1041 19.9283 21.4185C19.9283 20.5959 19.2975 20.3217 18.6668 20.3217C17.7838 20.3217 16.9008 20.3217 16.0178 20.4588C15.3871 20.4588 15.1348 20.8701 15.1348 21.5557C15.1348 22.1041 15.1348 22.6525 15.7655 22.9268C16.2701 22.9268 16.9008 22.9268 17.4054 23.0639Z" fill="black"/>
<path id="Vector_2" d="M34.4348 29.5076C33.2995 32.6612 31.2812 34.0323 28.7584 33.6209C26.4878 33.2096 24.9741 31.0158 24.9741 28.1365C24.9741 25.3942 25.1002 22.7891 27.7492 21.418C30.7766 19.7726 34.6871 21.9664 35.0655 25.6685C35.1916 27.0396 34.4348 28.1365 33.0472 28.2736C31.6596 28.4107 30.2721 28.4107 28.8845 28.4107C28.5061 28.4107 28.1276 28.6849 28.1276 29.2334C28.1276 29.5076 28.3799 29.9189 28.5061 30.0561C29.5152 30.8787 30.6505 31.1529 31.5335 30.1931C32.4165 29.0962 33.2995 29.0962 34.4348 29.5076ZM30.1459 26.0798C30.7766 26.0798 31.4074 26.2169 31.5335 25.2571C31.5335 24.4345 31.0289 23.886 30.2721 23.886C29.5152 23.886 28.8845 24.2973 28.7584 25.12C28.5061 26.2169 29.6413 25.8056 30.1459 26.0798Z" fill="black"/>
<path id="Vector_3" d="M29.7674 19.9098C29.1367 19.9098 28.6321 19.9098 28.0014 19.9098C27.3707 19.9098 26.8661 19.6356 26.8661 18.6758C26.8661 17.8531 27.2446 17.4418 28.0014 17.4418C29.2629 17.4418 30.5243 17.4418 31.9119 17.4418C32.5426 17.4418 32.7949 17.8532 32.7949 18.4016C32.7949 19.0872 32.6687 19.6356 31.7857 19.7727C31.155 19.9099 30.5243 19.7727 29.7674 19.9098C29.7674 19.7727 29.7674 19.7727 29.7674 19.9098Z" fill="black"/>
</g>
</g>
</g>
<defs>
<clipPath id="clip0_313_95">
<rect width="46" height="50" fill="white"/>
</clipPath>
</defs>
</svg>
