<svg width="180" height="180" viewBox="0 0 180 180" fill="none" xmlns="http://www.w3.org/2000/svg">
<path d="M38.2992 2.88428C28.2065 2.88428 20.7408 11.7212 21.074 21.3047C21.3947 30.5101 20.9784 42.4351 17.9761 52.1579C14.9667 61.9116 9.87607 68.0752 1.56091 68.8683V77.8501C9.87607 78.6418 14.9667 84.8068 17.9761 94.5605C20.9784 104.283 21.3933 116.208 21.074 125.414C20.7393 134.997 28.2065 143.833 38.2992 143.833H141.715C151.807 143.833 159.273 134.996 158.94 125.414C158.619 116.208 159.036 104.283 162.037 94.5605C165.046 84.8082 170.124 78.6432 178.439 77.8501V68.8683C170.124 68.0766 165.047 61.9116 162.037 52.1579C159.036 42.4351 158.619 30.5101 158.94 21.3047C159.273 11.7212 151.807 2.88428 141.713 2.88428H38.2992ZM120.022 89.6302C120.022 102.826 110.175 110.827 93.8362 110.827H63.7115C63.5284 110.827 63.3528 110.754 63.2233 110.624C63.0938 110.495 63.0211 110.319 63.0211 110.136V36.5527C63.0209 36.4619 63.0386 36.372 63.0732 36.2881C63.1078 36.2041 63.1587 36.1278 63.2228 36.0636C63.2869 35.9993 63.3631 35.9483 63.447 35.9135C63.5308 35.8787 63.6207 35.8608 63.7115 35.8608H93.6773C107.302 35.8608 116.243 43.238 116.243 54.564C116.243 62.5135 110.229 69.6291 102.565 70.8765V71.2927C112.996 72.436 120.022 79.6571 120.022 89.6302ZM90.8029 45.3685H74.9432V67.7588H88.3026C98.6273 67.7588 104.321 63.6033 104.321 56.1741C104.321 49.2132 99.4261 45.3685 90.8029 45.3685ZM74.9432 76.6435V101.32H91.3893C102.14 101.32 107.835 97.0088 107.835 88.9032C107.835 80.799 101.981 76.6435 90.6975 76.6435H74.9432Z" fill="#956BBE"/>
<path d="M16.0283 170.761V145.817H23.1257C25.2819 145.817 26.9924 146.345 28.2571 147.401C29.5208 148.456 30.1527 149.829 30.1527 151.523C30.1527 152.938 29.7702 154.168 29.0052 155.211C28.2393 156.255 27.1836 156.997 25.8383 157.437V157.508C27.5202 157.704 28.8655 158.342 29.8743 159.42C30.883 160.487 31.3874 161.879 31.3874 163.595C31.3874 165.729 30.6224 167.457 29.0924 168.779C27.5614 170.101 25.6302 170.761 23.2986 170.761H16.0283ZM18.9505 148.461V156.515H21.943C23.5433 156.515 24.8014 156.132 25.7174 155.367C26.6333 154.589 27.0913 153.499 27.0913 152.096C27.0913 149.673 25.4966 148.461 22.3072 148.461H18.9505ZM18.9505 159.142V168.118H22.9161C24.6327 168.118 25.9607 167.712 26.9 166.9C27.8507 166.088 28.326 164.975 28.326 163.56C28.326 160.614 26.3197 159.142 22.3072 159.142H18.9505ZM43.5121 171.183C40.8796 171.183 38.7749 170.354 37.198 168.696C35.6324 167.026 34.8496 164.817 34.8496 162.068C34.8496 159.076 35.6671 156.74 37.3021 155.058C38.9371 153.377 41.1463 152.536 43.9297 152.536C46.5847 152.536 48.6547 153.354 50.1397 154.989C51.635 156.624 52.3827 158.891 52.3827 161.79C52.3827 164.631 51.5769 166.91 49.9654 168.627C48.365 170.331 46.2139 171.183 43.5121 171.183V171.183ZM43.7202 154.937C41.8883 154.937 40.4389 155.563 39.3721 156.816C38.3052 158.056 37.7718 159.772 37.7718 161.964C37.7718 164.075 38.3108 165.739 39.3889 166.956C40.4671 168.175 41.9108 168.784 43.7202 168.784C45.5643 168.784 46.9794 168.187 47.9657 166.991C48.9622 165.797 49.4605 164.098 49.4605 161.895C49.4605 159.668 48.9622 157.952 47.9657 156.745C46.9794 155.54 45.5643 154.937 43.7202 154.937V154.937ZM64.3864 171.183C61.7539 171.183 59.6493 170.354 58.0724 168.696C56.5068 167.026 55.7239 164.817 55.7239 162.068C55.7239 159.076 56.5414 156.74 58.1764 155.058C59.8114 153.377 62.0207 152.536 64.8041 152.536C67.4591 152.536 69.5291 153.354 71.0141 154.989C72.5104 156.624 73.2585 158.891 73.2585 161.79C73.2585 164.631 72.4522 166.91 70.8397 168.627C69.2394 170.331 67.0883 171.183 64.3864 171.183V171.183ZM64.5946 154.937C62.7627 154.937 61.3133 155.563 60.2464 156.816C59.1796 158.056 58.6461 159.772 58.6461 161.964C58.6461 164.075 59.1852 165.739 60.2633 166.956C61.3414 168.175 62.7852 168.784 64.5946 168.784C66.4386 168.784 67.8538 168.187 68.84 166.991C69.8366 165.797 70.3349 164.098 70.3349 161.895C70.3349 159.668 69.8366 157.952 68.84 156.745C67.8538 155.54 66.4386 154.937 64.5946 154.937V154.937ZM86.0779 170.593C85.4057 170.964 84.5183 171.15 83.4158 171.15C80.2968 171.15 78.7372 169.41 78.7372 165.931V155.39H75.6758V152.954H78.7372V148.606L81.5905 147.683V152.954H86.0779V155.39H81.5905V165.426C81.5905 166.621 81.7935 167.473 82.1994 167.984C82.6044 168.494 83.2766 168.749 84.216 168.749C84.935 168.749 85.5557 168.552 86.0779 168.158V170.593ZM88.8088 170.115V167.053C90.3622 168.201 92.0727 168.774 93.9402 168.774C96.4452 168.774 97.6977 167.94 97.6977 166.271C97.6977 165.795 97.5875 165.395 97.3672 165.07C97.1582 164.734 96.868 164.438 96.4968 164.183C96.1377 163.928 95.7088 163.702 95.21 163.505C94.7225 163.296 94.1947 163.081 93.6266 162.861C92.8391 162.548 92.1435 162.235 91.5397 161.922C90.9491 161.597 90.4504 161.238 90.0435 160.843C89.6497 160.437 89.3483 159.979 89.1393 159.469C88.9424 158.959 88.8439 158.362 88.8439 157.678C88.8439 156.843 89.0352 156.107 89.4177 155.468C89.8002 154.819 90.3102 154.28 90.9477 153.851C91.5852 153.411 92.3104 153.08 93.1232 152.858C93.9463 152.638 94.7929 152.528 95.6629 152.528C97.205 152.528 98.585 152.795 99.8029 153.33V156.217C98.4922 155.358 96.9843 154.928 95.2789 154.928C94.7455 154.928 94.2646 154.992 93.8361 155.12C93.4068 155.236 93.0355 155.405 92.7224 155.626C92.4205 155.845 92.1829 156.112 92.0094 156.425C91.8472 156.727 91.7661 157.063 91.7661 157.434C91.7661 157.898 91.8472 158.286 92.0094 158.599C92.1829 158.912 92.4322 159.19 92.7575 159.434C93.0819 159.678 93.4761 159.898 93.9402 160.095C94.4043 160.292 94.9321 160.507 95.5236 160.739C96.3111 161.04 97.0185 161.353 97.6457 161.678C98.2719 161.992 98.8053 162.351 99.246 162.757C99.6866 163.151 100.023 163.609 100.254 164.131C100.498 164.652 100.62 165.272 100.62 165.991C100.62 166.873 100.423 167.638 100.029 168.288C99.6458 168.938 99.1293 169.477 98.4796 169.905C97.8308 170.334 97.0832 170.654 96.2366 170.863C95.39 171.072 94.5027 171.176 93.5746 171.176C91.7427 171.176 90.1536 170.822 88.8074 170.115H88.8088ZM113.265 170.593C112.593 170.964 111.705 171.15 110.603 171.15C107.484 171.15 105.924 169.41 105.924 165.931V155.39H102.863V152.954H105.924V148.606L108.778 147.683V152.954H113.265V155.39H108.778V165.426C108.778 166.621 108.981 167.473 109.386 167.984C109.791 168.494 110.464 168.749 111.403 168.749C112.122 168.749 112.743 168.552 113.265 168.158V170.593ZM126.364 155.841C125.865 155.459 125.146 155.267 124.207 155.267C122.989 155.267 121.969 155.841 121.146 156.989C120.334 158.137 119.928 159.703 119.928 161.686V170.766H117.076V152.954H119.928V156.624H119.998C120.404 155.372 121.024 154.398 121.858 153.702C122.693 152.994 123.627 152.641 124.66 152.641C125.401 152.641 125.969 152.722 126.364 152.885V155.841ZM142.214 170.761H139.361V167.977H139.29C138.05 170.112 136.224 171.179 133.813 171.179C132.038 171.179 130.646 170.709 129.636 169.77C128.64 168.831 128.142 167.584 128.142 166.029C128.142 162.701 130.101 160.765 134.02 160.222L139.361 159.472C139.361 156.446 138.137 154.933 135.69 154.933C133.545 154.933 131.609 155.663 129.881 157.124V154.201C131.632 153.089 133.65 152.532 135.935 152.532C140.121 152.532 142.214 154.747 142.214 159.177V170.761ZM139.361 161.752L135.065 162.342C133.743 162.528 132.745 162.858 132.072 163.334C131.4 163.798 131.064 164.627 131.064 165.821C131.064 166.691 131.371 167.405 131.986 167.962C132.613 168.505 133.442 168.777 134.474 168.777C135.889 168.777 137.054 168.285 137.97 167.301C138.898 166.303 139.362 165.045 139.362 163.525L139.361 161.752ZM150.511 168.188H150.441V178.956H147.589V152.95H150.442V156.08H150.511C151.914 153.715 153.967 152.532 156.669 152.532C158.965 152.532 160.756 153.332 162.043 154.933C163.331 156.521 163.974 158.655 163.974 161.334C163.974 164.314 163.25 166.703 161.8 168.5C160.351 170.286 158.368 171.179 155.852 171.179C153.544 171.179 151.763 170.182 150.511 168.187V168.188ZM150.441 161.003V163.493C150.441 164.964 150.916 166.216 151.868 167.249C152.831 168.27 154.048 168.78 155.52 168.78C157.249 168.78 158.6 168.119 159.574 166.797C160.558 165.475 161.051 163.637 161.051 161.282C161.051 159.299 160.593 157.745 159.678 156.62C158.762 155.495 157.521 154.933 155.956 154.933C154.296 154.933 152.963 155.513 151.955 156.672C150.945 157.821 150.441 159.264 150.441 161.003V161.003Z" fill="#956BBE"/>
</svg>
