<svg width="200" height="205" viewBox="0 0 200 205" fill="none" xmlns="http://www.w3.org/2000/svg">
<g id="Logos/css3-original-wordmark">
<path id="Vector" d="M139.428 9.37877H127.891L139.889 22.7246V29.078H115.177V21.6387H127.173L115.177 8.29291V1.93311H139.428V9.37877ZM110.277 9.37877H98.7391L110.737 22.7246V29.078H86.0234V21.6387H98.0219L86.0234 8.29291V1.93311H110.277V9.37877ZM81.4109 9.68307H68.9609V21.328H81.4109V29.078H60.1109V1.93311H81.4109V9.68307Z" fill="#956BBE"/>
<path id="Vector_2" d="M43.1455 186.911L30.4939 41.4685H169.505L156.842 186.887L99.9142 203.066L43.1455 186.911Z" fill="#956BBE"/>
<path id="Vector_3" d="M100.002 190.702L146 177.63L156.822 53.363H100.002V190.702Z" fill="#CAB5DF"/>
<path id="Vector_4" d="M100 106.055H123.028L124.62 87.7896H100V69.9514H143.639L143.222 74.7369L138.945 123.892H100V106.055Z" fill="white"/>
<path id="Vector_5" d="M100.105 152.382L100.028 152.404L80.6471 147.039L79.4064 132.812H61.9392L64.3783 160.821L100.025 170.963L100.106 170.939V152.382H100.105Z" fill="#EBEBEB"/>
<path id="Vector_6" d="M121.55 123.137L119.453 147.026L100.043 152.396V170.955L135.72 160.82L135.983 157.806L139.011 123.137H121.55Z" fill="white"/>
<path id="Vector_7" d="M100.061 69.9514V87.788H58.025L57.675 83.7793L56.8828 74.7369L56.4656 69.9514H100.061ZM100 106.057V123.895H80.8641L80.5156 119.887L79.7219 110.843L79.3047 106.057H100Z" fill="#EBEBEB"/>
</g>
</svg>
