<svg width="128" height="128" viewBox="0 0 128 128" fill="none" xmlns="http://www.w3.org/2000/svg">
<path d="M35.1999 34.8996L26.8999 26.5996V86.2996L26.9999 89.0996C26.9999 90.3996 27.1999 91.8996 27.6999 93.3996L93.2999 116.5L109.6 109.3L35.1999 34.8996V34.8996Z" fill="#956BBE"/>
<path d="M109.6 109.3L93.2999 116.5L27.8999 93.4004C29.1999 98.2004 31.8999 103.5 34.8999 106.6L56.1999 127.8L103.8 127.9L109.6 109.3Z" fill="#8058A8"/>
<path d="M1.70001 65.1C-0.399993 67.3 0.700007 72 4.00001 75.5L18.7 90.3L27.9 93.6C27.6 92.1 27.2 90.6 27.2 89.3L27.1 86.5L26.9 26.7M109.6 109.3L116.8 92.9L93.8 27.3C92.3 27 90.8 26.7 89.5 26.6L86.6 26.5L27 26.6" fill="#6C478F"/>
<path d="M93.6 27.3C93.8 27.3 93.8 27.3 93.6 27.3C93.8 27.3 93.8 27.3 93.6 27.3ZM109.6 109.3L127.3 103.5V54.8L106.9 34.3C103.9 31.3 98.6 28.5 93.7 27.3L116.8 92.9001" fill="#8A51C1"/>
<path d="M90.5 18.2001L75.7 3.50008C72.3 0.100075 67.7 -0.899924 65.3 1.20008L26.9 26.6001H86.4L89.3 26.7001C90.6 26.7001 92.1 26.9001 93.6 27.4001L90.5 18.2001V18.2001Z" fill="#956BBE"/>
</svg>
