<svg width="44" height="44" viewBox="0 0 44 44" fill="none" xmlns="http://www.w3.org/2000/svg">
<g id="Behance">
<g id="Behance_2">
<path id="Vector" d="M0.18146 21.5253C0.18146 18.138 0.423406 14.5089 0.18146 11.1216C-0.0604866 8.94409 0.907292 7.97632 3.08481 7.73438C6.71401 7.25048 10.3432 7.25047 13.9724 7.49241C19.7791 8.21825 22.4405 13.0572 20.263 18.38C19.5372 19.8317 19.2953 20.5575 20.505 22.0092C24.6181 26.8481 22.4405 33.6226 16.3919 35.3163C11.7949 36.526 6.71402 35.5582 2.11704 35.8002C0.423414 35.8002 0.18146 34.3485 0.18146 32.8968C-0.0604866 29.2676 -0.0604866 25.3964 0.18146 21.5253ZM10.3432 25.3964C9.85931 25.3964 9.1335 25.3964 8.40766 25.3964C6.71404 25.3964 5.50429 25.8804 5.74624 28.0579C5.98818 29.7515 6.47209 30.9613 8.40766 30.9613C10.1013 30.9613 11.7949 30.9612 13.4885 30.7193C15.1821 30.4773 16.6338 29.9934 16.1499 27.8159C15.908 26.1223 14.6983 25.1545 13.0046 25.1545C12.2788 25.1545 11.5529 25.1545 10.3432 25.3964ZM10.1013 18.622C11.0691 18.38 12.0368 18.38 13.0046 18.138C14.2144 17.8961 14.9402 16.9283 14.9402 15.7186C14.9402 14.2669 13.7305 13.783 12.5207 13.783C10.8271 13.783 9.13348 13.7831 7.43986 14.025C6.23012 14.025 5.74624 14.7508 5.74624 15.9605C5.74624 16.9283 5.74624 17.8961 6.95597 18.38C7.92376 18.38 9.1335 18.38 10.1013 18.622Z" fill="white"/>
<path id="Vector_2" d="M42.7642 29.9928C40.5866 35.5576 36.7155 37.9771 31.8766 37.2512C27.5215 36.5254 24.6182 32.6542 24.6182 27.5734C24.6182 22.7344 24.8601 18.1375 29.941 15.718C35.7477 12.8146 43.248 16.6858 43.9739 23.2184C44.2158 25.6378 42.7641 27.5734 40.1027 27.8153C37.4413 28.0573 34.7799 28.0573 32.1185 28.0573C31.3926 28.0573 30.6668 28.5412 30.6668 29.509C30.6668 29.9929 31.1507 30.7187 31.3927 30.9607C33.3282 32.4123 35.5058 32.8962 37.1994 31.2026C38.893 29.267 40.5866 29.267 42.7642 29.9928ZM34.5379 23.9442C35.7477 23.9442 36.9574 24.1862 37.1994 22.4925C37.1994 21.0409 36.2316 20.0731 34.7799 20.0731C33.3282 20.0731 32.1185 20.7989 31.8766 22.2506C31.3927 24.1862 33.5702 23.4603 34.5379 23.9442Z" fill="white"/>
<path id="Vector_3" d="M33.8122 13.0567C32.6025 13.0567 31.6346 13.0567 30.4249 13.0567C29.2152 13.0567 28.2474 12.5728 28.2474 10.8792C28.2474 9.42748 28.9732 8.70166 30.4249 8.70166C32.8444 8.70166 35.2639 8.70166 37.9253 8.70166C39.135 8.70166 39.6189 9.42753 39.6189 10.3953C39.6189 11.605 39.3769 12.5728 37.6833 12.8148C36.4736 13.0567 35.2639 12.8147 33.8122 13.0567C33.8122 12.8147 33.8122 12.8147 33.8122 13.0567Z" fill="white"/>
</g>
</g>
</svg>
