<svg width="41" height="41" viewBox="0 0 41 41" fill="none" xmlns="http://www.w3.org/2000/svg">
<g id="Twitter">
<g id="Twitter_2">
<path id="Vector" d="M7.34133 24.8302C6.14855 23.6374 4.95577 22.4446 4.00155 21.2518C2.80878 19.5819 0.423236 17.9121 3.763 15.7651C4.71722 15.0494 4.00156 13.6181 3.763 12.6638C3.04734 10.5168 2.80878 8.3699 2.80878 5.03013C5.90999 9.56267 9.01121 12.1868 13.5437 13.3795C14.9751 13.8567 16.4064 13.8566 18.0763 14.0952C20.9389 14.3337 22.1317 12.9024 22.3703 10.0397C23.0859 2.64453 27.1414 0.258977 33.5824 4.07585C35.9679 5.50718 36.9221 3.3602 38.8306 3.12165C39.5462 5.03009 40.739 6.93853 38.8306 9.08552C37.8763 10.0397 38.1149 11.4711 38.1149 12.9024C37.8763 24.1145 30.9582 33.4181 20.2233 36.7579C16.8835 37.9507 13.3052 38.6663 9.4883 38.6663C6.38709 38.4277 3.52443 37.9507 1.13889 34.8495C4.2401 34.3724 7.81843 36.0423 9.96542 32.4639C8.5341 30.3169 4.71721 29.6012 4.47866 26.0229C4.95577 24.8302 6.62566 26.0229 7.34133 24.8302Z" fill="white"/>
</g>
</g>
</svg>
