<svg width="41" height="41" viewBox="0 0 41 41" fill="none" xmlns="http://www.w3.org/2000/svg">
<g id="Linkedin">
<g id="Linkedin_2">
<path id="Vector" d="M15.0427 27.2164C15.0427 24.1267 15.0427 21.2576 15.0427 18.1678C15.2634 14.1953 17.4704 12.209 21.0016 13.7539C22.7672 14.416 23.8706 14.6367 25.1948 13.9746C28.5053 12.209 31.3743 13.5332 34.4641 14.6367C36.4504 15.2988 37.5539 16.8436 38.216 18.8299C39.9815 24.568 39.9816 30.3062 39.7609 36.0443C39.7609 37.5892 39.0988 38.6927 37.3332 38.9134C36.8918 38.9134 36.6711 38.9134 36.2297 39.1341C30.0502 40.2376 29.388 39.7962 30.0501 33.6167C30.2708 30.9683 30.7122 28.3199 30.0501 25.6715C29.6087 24.3474 29.1674 22.8025 27.4018 22.5818C25.8569 22.3611 24.7534 23.4646 23.8706 24.5681C22.9878 25.6715 22.7671 26.9957 22.7671 28.5406C22.7671 30.7476 22.7671 32.7339 22.7671 34.9409C22.7671 39.3548 22.5465 39.5755 18.5739 39.3548C14.822 39.3548 14.822 39.3548 14.822 35.6029C15.0427 32.9546 15.0427 30.0855 15.0427 27.2164Z" fill="white"/>
<path id="Vector_2" d="M2.90437 26.7751C2.90437 23.6853 2.90437 20.8162 2.90437 17.7265C2.90437 15.0781 4.44928 14.6367 6.65625 14.416C9.08392 14.416 9.52529 15.7402 9.52529 17.7265C9.96668 23.4646 9.9667 29.2028 9.746 34.9409C9.746 36.9272 9.74601 39.3549 6.65625 39.3549C4.00788 39.5756 2.68365 38.4721 2.68365 35.8237C2.68365 32.7339 2.68365 29.4234 2.68365 26.3337C2.68365 26.7751 2.90437 26.7751 2.90437 26.7751Z" fill="white"/>
<path id="Vector_3" d="M4.8907 2.27783C8.20116 2.27783 9.96678 3.60202 9.96678 5.58829C9.96678 8.01597 7.09768 10.885 4.8907 10.885C2.68373 10.885 1.13889 9.11945 1.13889 6.69178C1.35958 3.82271 2.68373 2.27783 4.8907 2.27783Z" fill="white"/>
</g>
</g>
</svg>
