<svg width="41" height="37" viewBox="0 0 41 37" fill="none" xmlns="http://www.w3.org/2000/svg">
<g id="Instagram" clip-path="url(#clip0_69_88)">
<g id="Instagram_2">
<path id="Vector" d="M20.964 36.5992C17.2911 36.5992 13.6182 36.7899 10.1614 36.5992C5.19224 36.2179 3.24777 34.6924 2.38357 30.116C1.30332 24.7769 0.871227 19.6285 1.51938 14.2894C1.73543 12.3825 1.95147 10.285 2.38357 8.37819C3.03172 4.37385 4.97619 2.6577 9.51326 1.70429C11.4577 1.32292 13.1861 1.13222 15.1306 1.3229C19.2356 1.51358 23.3405 1.51357 27.4455 1.1322C29.3899 0.941521 31.1183 1.13222 33.0628 1.3229C36.7357 1.70426 39.3283 3.42044 39.7604 6.66205C41.0567 14.6707 42.1369 22.6794 40.4085 30.688C39.5443 34.5017 37.5999 36.0272 33.2789 36.7899C29.3899 36.9806 25.285 36.7899 20.964 36.5992ZM21.8282 11.0477C16.859 10.8571 12.538 14.0987 12.1059 18.103C11.6738 23.0608 15.1306 26.3024 20.964 26.6837C25.501 26.8744 29.8221 23.4421 30.2542 19.0564C30.6863 15.0521 26.7973 11.2384 21.8282 11.0477ZM35.2233 7.9968C35.0073 6.8527 34.3591 6.08997 32.8468 6.08997C31.1184 6.08997 30.2542 7.04341 30.2542 8.37819C30.2542 9.71297 31.1184 10.6663 32.8468 10.6663C34.5752 10.4757 35.2233 9.52226 35.2233 7.9968Z" fill="white"/>
</g>
</g>
<defs>
<clipPath id="clip0_69_88">
<rect width="41" height="36.5435" fill="white"/>
</clipPath>
</defs>
</svg>
