<svg width="41" height="41" viewBox="0 0 41 41" fill="none" xmlns="http://www.w3.org/2000/svg">
<g id="Github" clip-path="url(#clip0_69_101)">
<g id="Github_2">
<path id="Vector" d="M21.5144 0C26.846 0.18277 31.7969 2.01043 35.4148 6.76245C40.9369 14.0732 43.2219 22.1151 38.2711 29.9742C30.6544 42.037 20.3719 43.8648 8.75642 37.1023C0.758895 32.3503 -1.52612 21.9324 0.9493 13.8905C3.42472 5.30034 11.4222 0 21.5144 0ZM9.7085 26.8671C10.2798 27.9637 10.851 28.8776 11.2318 29.9742C11.6126 30.8881 12.3743 31.2537 13.3264 31.2537C14.4689 31.2537 15.0402 30.8881 15.2306 29.9742C15.421 28.8776 14.8497 28.6949 14.0881 28.5121C12.5647 28.1466 11.2318 27.0499 9.7085 26.8671C8.566 24.6739 7.04264 22.6634 7.42347 19.9219C8.18514 15.901 8.94682 11.6972 9.51807 7.85908C11.0414 7.49354 11.8031 7.85911 12.5648 8.40742C14.6593 9.68681 16.7539 10.4179 19.4198 9.68678C20.3718 9.50401 21.5143 9.68679 22.6568 9.86956C24.7514 10.2351 26.4652 10.0523 28.179 8.59015C30.2736 6.94522 31.2256 7.49357 31.416 10.2351C31.6065 12.7939 31.4161 15.3527 32.5586 17.9115C34.4627 21.9324 32.3681 27.0499 27.0364 28.5121C26.0844 28.6949 25.3227 29.0604 25.7035 30.3398C26.2748 32.533 25.8939 34.9091 27.0364 37.1023C34.0819 33.9952 37.5094 29.7914 38.4615 23.2117C38.8423 20.4702 38.2711 17.5459 37.5094 14.9871C33.3202 0.548276 21.5144 -1.09662 10.4702 4.56925C6.09056 6.76248 3.42472 11.149 2.28221 16.0838C1.33013 20.1047 2.47264 23.7601 3.42473 27.5983C4.75765 31.9847 7.80432 34.7262 11.9935 36.5539C12.5648 36.9194 13.5168 37.4678 13.8977 36.3712C14.2785 35.4573 13.8977 34.7263 12.5648 34.5435C10.6606 34.3607 8.75641 33.9951 8.18516 31.9847C7.80432 30.157 6.28099 28.8776 5.3289 27.5983C6.85224 26.6844 8.37558 27.4154 9.7085 26.8671Z" fill="white"/>
</g>
</g>
<defs>
<clipPath id="clip0_69_101">
<rect width="41" height="41" fill="white"/>
</clipPath>
</defs>
</svg>
