<svg width="46" height="46" viewBox="0 0 46 46" fill="none" xmlns="http://www.w3.org/2000/svg">
<g id="Github" clip-path="url(#clip0_30_51)">
<g id="Github_2">
<path id="Ellipse 30 (Stroke)" fill-rule="evenodd" clip-rule="evenodd" d="M23 44.0833C34.644 44.0833 44.0833 34.644 44.0833 23C44.0833 11.356 34.644 1.91667 23 1.91667C11.356 1.91667 1.91667 11.356 1.91667 23C1.91667 34.644 11.356 44.0833 23 44.0833ZM23 46C35.7025 46 46 35.7025 46 23C46 10.2975 35.7025 0 23 0C10.2975 0 0 10.2975 0 23C0 35.7025 10.2975 46 23 46Z" fill="black"/>
<g id="Group 126">
<path id="Vector" d="M23.8201 11.0208C26.8733 11.1264 29.7083 12.1815 31.7801 14.9251C34.9423 19.1459 36.2508 23.7888 33.4158 28.3262C29.0541 35.2906 23.1659 36.3458 16.5143 32.4416C11.9346 29.698 10.6261 23.6833 12.0436 19.0404C13.4612 14.0809 18.0409 11.0208 23.8201 11.0208ZM17.0595 26.5324C17.3867 27.1655 17.7138 27.6931 17.9318 28.3262C18.1499 28.8538 18.5861 29.0649 19.1313 29.0649C19.7856 29.0649 20.1127 28.8538 20.2217 28.3262C20.3308 27.6931 20.0036 27.5876 19.5675 27.4821C18.6951 27.271 17.9319 26.6379 17.0595 26.5324C16.4053 25.2661 15.5329 24.1054 15.751 22.5226C16.1872 20.2011 16.6234 17.7741 16.9505 15.5582C17.8228 15.3472 18.259 15.5582 18.6952 15.8748C19.8946 16.6134 21.0941 17.0355 22.6206 16.6134C23.1658 16.5079 23.8201 16.6134 24.4743 16.7189C25.6738 16.93 26.6552 16.8245 27.6366 15.9803C28.836 15.0306 29.3812 15.3472 29.4903 16.93C29.5993 18.4073 29.4903 19.8846 30.1445 21.3619C31.2349 23.6833 30.0355 26.6379 26.9823 27.4821C26.4371 27.5876 26.0009 27.7986 26.219 28.5373C26.5461 29.8035 26.3281 31.1753 26.9823 32.4416C31.0168 30.6477 32.9796 28.2207 33.5248 24.4219C33.7429 22.8391 33.4158 21.1508 32.9796 19.6735C30.5807 11.3374 23.8201 10.3877 17.4957 13.6589C14.9877 14.9251 13.4611 17.4576 12.8069 20.3067C12.2617 22.6281 12.9159 24.7385 13.4612 26.9545C14.2244 29.487 15.9691 31.0697 18.368 32.1249C18.6951 32.336 19.2404 32.6526 19.4584 32.0194C19.6765 31.4918 19.4584 31.0698 18.6952 30.9642C17.6047 30.8587 16.5143 30.6477 16.1872 29.4869C15.9691 28.4317 15.0968 27.6931 14.5516 26.9545C15.4239 26.4269 16.2962 26.8489 17.0595 26.5324Z" fill="black"/>
</g>
</g>
</g>
<defs>
<clipPath id="clip0_30_51">
<rect width="46" height="46" fill="white"/>
</clipPath>
</defs>
</svg>
