<svg width="200" height="205" viewBox="0 0 200 205" fill="none" xmlns="http://www.w3.org/2000/svg">
<g id="Logos/html5-original-wordmark">
<path id="Vector" d="M43.5219 186.348L30.9547 41.8696H169.045L156.466 186.326L99.9156 202.394L43.5219 186.348Z" fill="#956BBE"/>
<path id="Vector_2" d="M100 190.112L145.694 177.126L156.445 53.6843H100V190.112Z" fill="#CAB5DF"/>
<path id="Vector_3" d="M100 107.269H77.1234L75.5453 89.122H100V71.4023H56.6516L57.0641 76.1574L61.3141 124.987H100V107.269ZM100 153.287L99.9234 153.308L80.6719 147.978L79.4406 133.847H62.0859L64.5078 161.67L99.9203 171.747L100 171.723V153.287Z" fill="#EBEBEB"/>
<path id="Vector_4" d="M43.8031 2.60571H52.5875V11.504H60.625V2.60571H69.4109V29.5472H60.625V20.5256H52.5891V29.5472H43.8031V2.60571ZM80.9625 11.5408H73.2281V2.60571H97.4859V11.5408H89.7484V29.5472H80.9625V11.5408ZM101.336 2.60571H110.495L116.131 12.0725L121.761 2.60571H130.925V29.5472H122.173V16.1934L116.131 25.7723H115.978L109.931 16.1934V29.5472H101.334V2.60571H101.336ZM135.298 2.60571H144.086V20.6425H156.441V29.5488H135.298V2.60571Z" fill="#956BBE"/>
<path id="Vector_5" d="M99.9406 107.269V124.987H121.228L119.222 147.968L99.9406 153.303V171.737L135.381 161.67L135.641 158.675L139.703 112.026L140.125 107.269H135.466H99.9406ZM99.9406 71.4023V89.122H141.698L142.044 85.1389L142.833 76.1574L143.247 71.4023H99.9406Z" fill="white"/>
</g>
</svg>
