<svg width="46" height="49" viewBox="0 0 46 49" fill="none" xmlns="http://www.w3.org/2000/svg">
<g id="Instagram" clip-path="url(#clip0_30_41)">
<g id="Instagram_2">
<path id="Ellipse 30 (Stroke)" fill-rule="evenodd" clip-rule="evenodd" d="M23 46.2337C34.644 46.2337 44.0833 36.334 44.0833 24.122C44.0833 11.9099 34.644 2.01016 23 2.01016C11.356 2.01016 1.91667 11.9099 1.91667 24.122C1.91667 36.334 11.356 46.2337 23 46.2337ZM23 48.2439C35.7025 48.2439 46 37.4441 46 24.122C46 10.7998 35.7025 0 23 0C10.2975 0 0 10.7998 0 24.122C0 37.4441 10.2975 48.2439 23 48.2439Z" fill="black"/>
<g id="Group 63">
<path id="Vector" d="M22.8373 35.6983C20.818 35.6983 18.7986 35.8251 16.898 35.6983C14.166 35.4447 13.0969 34.4303 12.6218 31.3871C12.0278 27.8367 11.7903 24.4131 12.1466 20.8627C12.2654 19.5947 12.3842 18.1999 12.6218 16.9319C12.9781 14.2691 14.0472 13.1279 16.5417 12.4939C17.6108 12.2403 18.5611 12.1135 19.6301 12.2403C21.8871 12.3671 24.144 12.3671 26.4009 12.1135C27.47 11.9867 28.4202 12.1135 29.4893 12.2403C31.5087 12.4939 32.9341 13.6351 33.1717 15.7907C33.8844 21.1163 34.4783 26.4419 33.528 31.7675C33.0529 34.3035 31.9838 35.318 29.6081 35.8252C27.47 35.952 25.213 35.8251 22.8373 35.6983ZM23.3125 18.7071C20.5804 18.5803 18.2047 20.7359 17.9671 23.3987C17.7295 26.6956 19.6301 28.8512 22.8373 29.1048C25.3318 29.2316 27.7075 26.9492 27.9451 24.0327C28.1827 21.3699 26.0445 18.8339 23.3125 18.7071ZM30.6772 16.6783C30.5584 15.9175 30.202 15.4103 29.3705 15.4103C28.4203 15.4103 27.9451 16.0443 27.9451 16.9319C27.9451 17.8195 28.4203 18.4535 29.3705 18.4535C30.3208 18.3267 30.6772 17.6927 30.6772 16.6783Z" fill="black"/>
</g>
</g>
</g>
<defs>
<clipPath id="clip0_30_41">
<rect width="46" height="48.2439" fill="white"/>
</clipPath>
</defs>
</svg>
