<svg width="200" height="220" viewBox="0 0 200 220" fill="none" xmlns="http://www.w3.org/2000/svg">
<g id="Logos/java-original-wordmark">
<path id="Vector" d="M83.4619 104.334C83.4619 104.334 78.2492 107.274 87.1778 108.268C97.9937 109.465 103.522 109.292 115.44 107.109C115.44 107.109 118.581 109.012 122.956 110.661C96.2318 121.758 62.473 110.018 83.4619 104.334ZM80.1937 89.8491C80.1937 89.8491 74.346 94.0476 83.281 94.943C94.8365 96.0984 103.959 96.1937 119.756 93.246C119.756 93.246 121.935 95.3937 125.368 96.5645C93.0635 105.725 57.081 97.286 80.1937 89.8491Z" fill="#956BBE"/>
<path id="Vector_2" d="M107.722 65.2785C114.311 72.6293 105.995 79.2385 105.995 79.2385C105.995 79.2385 122.714 70.8739 115.036 60.3954C107.863 50.6278 102.367 45.777 132.133 29.0447C132.135 29.0447 85.4063 40.3524 107.722 65.2785Z" fill="#956BBE"/>
<path id="Vector_3" d="M143.067 115.048C143.067 115.048 146.927 118.132 138.816 120.517C123.394 125.045 74.6191 126.411 61.0714 120.697C56.2048 118.643 65.3365 115.794 68.208 115.195C71.2032 114.566 72.9143 114.681 72.9143 114.681C67.4984 110.985 37.9064 121.941 57.8841 125.085C112.367 133.643 157.197 121.229 143.067 115.048ZM85.9714 74.8415C85.9714 74.8415 61.1635 80.5538 77.1873 82.6307C83.9556 83.5076 97.4381 83.3061 110.006 82.2845C120.275 81.4491 130.579 79.663 130.579 79.663C130.579 79.663 126.962 81.1676 124.341 82.8999C99.1445 89.323 50.4794 86.3307 64.4905 79.7645C76.3365 74.2091 85.9714 74.8415 85.9714 74.8415ZM130.476 98.9491C156.087 86.0538 144.244 73.6599 135.979 75.3291C133.959 75.7384 133.051 76.0922 133.051 76.0922C133.051 76.0922 133.805 74.9476 135.238 74.4568C151.59 68.8876 164.164 90.8891 129.965 99.603C129.965 99.603 130.357 99.2584 130.476 98.9491Z" fill="#956BBE"/>
<path id="Vector_4" d="M115.038 2.02002C115.038 2.02002 129.221 15.7723 101.584 36.9154C79.4222 53.88 96.5302 63.5508 101.575 74.6046C88.6381 63.2908 79.1492 53.3308 85.5143 44.0631C94.8619 30.46 120.759 23.8616 115.038 2.02002Z" fill="#956BBE"/>
<path id="Vector_5" d="M88.4905 133.906C113.068 135.429 150.822 133.058 151.716 121.786C151.716 121.786 149.998 126.058 131.4 129.449C110.419 133.277 84.5381 132.832 69.1921 130.377C69.1921 130.377 72.3349 132.9 88.4905 133.906Z" fill="#956BBE"/>
<path id="Vector_6" d="M150.581 154.125H149.832V153.718H151.848V154.125H151.102V156.151H150.579L150.581 154.125ZM154.605 154.226H154.595L153.852 156.151H153.51L152.771 154.226H152.763V156.151H152.268V153.718H152.994L153.678 155.44L154.364 153.718H155.084V156.151H154.605V154.226ZM84.4619 176.98C82.1445 178.928 79.6937 180.023 77.4921 180.023C74.3587 180.023 72.6587 178.198 72.6587 175.277C72.6587 172.115 74.4778 169.8 81.7667 169.8H84.4603V176.98H84.4619ZM90.8603 183.977V162.32C90.8603 156.783 87.6016 153.131 79.754 153.131C75.173 153.131 71.1572 154.229 67.8921 155.626L68.8318 159.461C71.4032 158.546 74.7286 157.697 77.9921 157.697C82.5159 157.697 84.4603 159.461 84.4603 163.114V165.851H82.2C71.2143 165.851 66.2572 169.981 66.2572 176.194C66.2572 181.546 69.5238 184.588 75.6746 184.588C79.627 184.588 82.581 183.006 85.3381 180.691L85.8397 183.978H90.8603V183.977ZM112.213 183.977H104.233L94.6286 153.686H101.598L107.56 172.3L108.886 177.892C111.895 169.803 114.029 161.591 115.095 153.688H121.875C120.06 163.658 116.79 174.608 112.213 183.977ZM142.829 176.98C140.503 178.928 138.051 180.023 135.857 180.023C132.721 180.023 131.022 178.198 131.022 175.277C131.022 172.115 132.846 169.8 140.127 169.8H142.827V176.98H142.829ZM149.23 183.977V162.32C149.23 156.783 145.962 153.131 138.121 153.131C133.535 153.131 129.521 154.229 126.256 155.626L127.197 159.461C129.768 158.546 133.098 157.697 136.362 157.697C140.879 157.697 142.829 159.461 142.829 163.114V165.851H140.568C129.579 165.851 124.624 169.981 124.624 176.194C124.624 181.546 127.887 184.588 134.037 184.588C137.99 184.588 140.94 183.006 143.705 180.691L144.21 183.978H149.23V183.977ZM59.2413 189.125C57.4206 191.708 54.4714 193.752 51.246 194.905L48.0889 191.297C50.5445 190.075 52.6476 188.105 53.627 186.268C54.4714 184.632 54.8222 182.529 54.8222 177.497V142.909H61.6222V177.021C61.6222 183.752 61.0698 186.474 59.2413 189.125Z" fill="#956BBE"/>
</g>
</svg>
