<svg width="46" height="47" viewBox="0 0 46 47" fill="none" xmlns="http://www.w3.org/2000/svg">
<g id="Linkedin" clip-path="url(#clip0_30_34)">
<g id="Linkedin_2">
<path id="Ellipse 30 (Stroke)" fill-rule="evenodd" clip-rule="evenodd" d="M23 45.0417C34.644 45.0417 44.0833 35.3971 44.0833 23.5C44.0833 11.6029 34.644 1.95833 23 1.95833C11.356 1.95833 1.91667 11.6029 1.91667 23.5C1.91667 35.3971 11.356 45.0417 23 45.0417ZM23 47C35.7025 47 46 36.4787 46 23.5C46 10.5213 35.7025 0 23 0C10.2975 0 0 10.5213 0 23.5C0 36.4787 10.2975 47 23 47Z" fill="black"/>
<g id="Group 64">
<path id="Vector" d="M19.8592 26.6809C19.8592 24.8917 19.8592 23.2303 19.8592 21.4411C19.9842 19.1408 21.2351 17.9906 23.2363 18.8852C24.237 19.2686 24.8624 19.3964 25.6129 19.013C27.4891 17.9906 29.1151 18.7573 30.8662 19.3963C31.9919 19.7797 32.6173 20.6743 32.9926 21.8245C33.9932 25.1473 33.9932 28.4701 33.8682 31.7929C33.8682 32.6875 33.4929 33.3265 32.4923 33.4543C32.2421 33.4543 32.117 33.4543 31.8669 33.5821C28.3646 34.2211 27.9894 33.9655 28.3646 30.3871C28.4897 28.8535 28.7398 27.3199 28.3646 25.7863C28.1144 25.0195 27.8643 24.1249 26.8637 23.9971C25.9881 23.8693 25.3627 24.5083 24.8624 25.1473C24.362 25.7863 24.237 26.5531 24.237 27.4477C24.237 28.7257 24.237 29.8759 24.237 31.1539C24.237 33.7099 24.1119 33.8377 21.8604 33.7099C19.7341 33.7099 19.7341 33.7099 19.7341 31.5373C19.8592 30.0037 19.8592 28.3423 19.8592 26.6809Z" fill="black"/>
<path id="Vector_2" d="M12.9798 26.4253C12.9798 24.6361 12.9798 22.9747 12.9798 21.1855C12.9798 19.6519 13.8553 19.3963 15.1061 19.2685C16.482 19.2685 16.7322 20.0353 16.7322 21.1855C16.9823 24.5083 16.9823 27.8311 16.8573 31.1539C16.8573 32.3041 16.8573 33.7099 15.1061 33.7099C13.6052 33.8377 12.8547 33.1987 12.8547 31.6651C12.8547 29.8759 12.8547 27.9589 12.8547 26.1697C12.8547 26.4253 12.9798 26.4253 12.9798 26.4253Z" fill="black"/>
<path id="Vector_3" d="M14.1055 12.2396C15.9817 12.2396 16.9824 13.0064 16.9824 14.1566C16.9824 15.5624 15.3563 17.2238 14.1055 17.2238C12.8547 17.2238 11.9792 16.2014 11.9792 14.7956C12.1043 13.1342 12.8547 12.2396 14.1055 12.2396Z" fill="black"/>
</g>
</g>
</g>
<defs>
<clipPath id="clip0_30_34">
<rect width="46" height="47" fill="white"/>
</clipPath>
</defs>
</svg>
