<svg width="40" height="40" viewBox="0 0 40 40" fill="none" xmlns="http://www.w3.org/2000/svg">
<g clip-path="url(#clip0_89_9)">
<circle cx="20" cy="20" r="20" fill="#8859B6"/>
<path d="M20.7131 9.58337C23.3681 9.67513 25.8333 10.5927 27.6349 12.9784C30.3846 16.6487 31.5225 20.686 29.0572 24.6315C25.2644 30.6875 20.1442 31.6051 14.3603 28.2101C10.3779 25.8244 9.24006 20.5942 10.4727 16.5569C11.7053 12.2443 15.6877 9.58337 20.7131 9.58337ZM14.8344 23.0717C15.1188 23.6222 15.4033 24.081 15.5929 24.6315C15.7825 25.0903 16.1618 25.2738 16.6359 25.2738C17.2048 25.2738 17.4893 25.0903 17.5841 24.6315C17.6789 24.081 17.3945 23.9892 17.0152 23.8975C16.2566 23.714 15.5929 23.1634 14.8344 23.0717C14.2655 21.9706 13.5069 20.9613 13.6965 19.5849C14.0758 17.5662 14.4551 15.4558 14.7395 13.5289C15.4981 13.3454 15.8774 13.5289 16.2567 13.8042C17.2997 14.4465 18.3427 14.8135 19.6701 14.4465C20.1442 14.3547 20.7131 14.4465 21.282 14.5383C22.325 14.7218 23.1784 14.63 24.0318 13.8959C25.0748 13.0701 25.5489 13.3454 25.6437 14.7218C25.7385 16.0064 25.6437 17.291 26.2126 18.5756C27.1608 20.5942 26.1178 23.1634 23.4629 23.8975C22.9888 23.9892 22.6095 24.1728 22.7991 24.8151C23.0836 25.9161 22.894 27.109 23.4629 28.2101C26.9712 26.6502 28.6779 24.5398 29.152 21.2365C29.3416 19.8602 29.0572 18.392 28.6779 17.1074C26.5919 9.85863 20.7131 9.03283 15.2136 11.8773C13.0328 12.9784 11.7053 15.1806 11.1364 17.658C10.6623 19.6767 11.2313 21.5118 11.7054 23.4387C12.3691 25.6409 13.8862 27.0172 15.9722 27.9348C16.2567 28.1183 16.7307 28.3936 16.9204 27.843C17.11 27.3843 16.9204 27.0172 16.2567 26.9255C15.3085 26.8337 14.3603 26.6502 14.0758 25.6408C13.8862 24.7233 13.1276 24.081 12.6535 23.4387C13.4121 22.9799 14.1706 23.3469 14.8344 23.0717Z" fill="white"/>
</g>
<defs>
<clipPath id="clip0_89_9">
<rect width="40" height="40" fill="white"/>
</clipPath>
</defs>
</svg>
