<svg width="180" height="180" viewBox="0 0 180 180" fill="none" xmlns="http://www.w3.org/2000/svg">
<path d="M90 79.875C97.2228 79.875 103.078 74.0197 103.078 66.7969C103.078 59.574 97.2228 53.7188 90 53.7188C82.7771 53.7188 76.9219 59.574 76.9219 66.7969C76.9219 74.0197 82.7771 79.875 90 79.875Z" fill="#956BBE"/>
<path d="M90 114.891C100.266 124.875 110.391 130.781 118.547 130.781C121.219 130.781 123.75 130.219 125.859 128.953C133.172 124.734 135.844 114.188 133.313 99.1406C132.891 96.4688 132.328 93.7969 131.625 90.9844C134.438 90.1406 136.969 89.2969 139.5 88.4531C153.703 82.9688 161.578 75.375 161.578 67.0781C161.578 58.6406 153.703 51.0469 139.5 45.7031C136.969 44.7187 134.438 43.875 131.625 43.1719C132.328 40.3594 132.891 37.6875 133.313 35.0156C135.703 19.6875 133.031 9 125.719 4.78125C123.609 3.51563 121.078 2.95312 118.406 2.95312C110.391 2.95312 100.125 8.85937 89.8594 18.8437C79.7344 8.85937 69.6094 2.95312 61.4531 2.95312C58.7813 2.95312 56.25 3.51563 54.1406 4.78125C46.8281 9 44.1563 19.5469 46.6875 34.5938C47.1094 37.2656 47.6719 39.9375 48.375 42.75C45.5625 43.5937 43.0312 44.4375 40.5 45.2813C26.2969 50.7656 18.4219 58.3594 18.4219 66.6563C18.4219 75.0938 26.2969 82.6875 40.5 88.0312C43.0312 89.0156 45.5625 89.8594 48.375 90.5625C47.6719 93.375 47.1094 96.0469 46.6875 98.7187C44.2969 113.766 46.9687 124.453 54.1406 128.531C56.25 129.797 58.7813 130.359 61.4531 130.359C69.6094 130.641 79.7344 124.734 90 114.891ZM82.125 95.9062C84.6563 96.0469 87.3281 96.0469 90 96.0469C92.6719 96.0469 95.3438 96.0469 97.875 95.9062C95.3438 99.2812 92.6719 102.375 90 105.328C87.3281 102.375 84.6563 99.2812 82.125 95.9062V95.9062ZM64.6875 81.4219C66.0938 83.8125 67.3594 86.0625 68.9063 88.3125C64.5469 87.75 60.4688 87.0469 56.5313 86.2031C57.7969 82.4063 59.2031 78.4688 60.8906 74.5313C62.0156 76.7813 63.2813 79.1719 64.6875 81.4219V81.4219ZM56.5313 47.5312C60.4688 46.6875 64.5469 45.9844 68.9063 45.4219C67.5 47.6719 66.0938 49.9219 64.6875 52.3125C63.2813 54.7031 62.0156 56.9531 60.8906 59.3438C59.0625 55.2656 57.6563 51.3281 56.5313 47.5312V47.5312ZM64.2656 66.7969C66.0937 63 68.0625 59.2031 70.3125 55.4063C72.4219 51.75 74.8125 48.0937 77.2031 44.4375C81.4219 44.1562 85.6406 44.0156 90 44.0156C94.5 44.0156 98.7187 44.1562 102.797 44.4375C105.328 48.0937 107.578 51.75 109.688 55.4063C111.938 59.2031 113.906 63 115.734 66.7969C113.906 70.5938 111.938 74.3906 109.688 78.1875C107.578 81.8437 105.188 85.5 102.797 89.1563C98.5781 89.4375 94.3594 89.5781 90 89.5781C85.5 89.5781 81.2813 89.4375 77.2031 89.1563C74.6719 85.5 72.4219 81.8437 70.3125 78.1875C68.0625 74.3906 66.0937 70.5938 64.2656 66.7969V66.7969ZM119.25 59.2031L115.453 52.1719C114.047 49.7812 112.781 47.5313 111.234 45.2813C115.594 45.8438 119.672 46.5469 123.609 47.3906C122.344 51.3281 120.938 55.2656 119.25 59.2031ZM119.25 74.3906C120.938 78.3281 122.344 82.2656 123.609 86.0625C119.672 86.9063 115.594 87.6094 111.234 88.1719C112.641 85.9219 114.047 83.6719 115.453 81.2813C116.719 79.1719 117.984 76.7813 119.25 74.3906ZM122.484 123.188C121.359 123.891 119.953 124.172 118.406 124.172C111.516 124.172 102.937 118.547 94.5 110.109C98.5781 105.75 102.516 100.828 106.453 95.3438C113.062 94.7813 119.391 93.7969 125.297 92.3906C126 94.9219 126.422 97.4531 126.844 99.9844C128.812 111.938 127.266 120.516 122.484 123.188V123.188ZM129.797 49.0781C145.547 53.5781 154.969 60.4688 154.969 66.7969C154.969 72.2813 148.5 77.7656 137.109 82.125C134.859 82.9688 132.328 83.8125 129.797 84.5156C127.969 78.75 125.719 72.8438 122.906 66.7969C125.719 60.75 128.109 54.8438 129.797 49.0781ZM118.547 9.42187C120.094 9.42187 121.359 9.70313 122.625 10.4063C127.266 13.0781 128.953 21.5156 126.984 33.6094C126.563 36 126 38.5312 125.437 41.2031C119.531 39.9375 113.203 38.9531 106.594 38.25C102.797 32.7656 98.7188 27.8438 94.6406 23.4844C103.078 15.1875 111.656 9.42187 118.547 9.42187V9.42187ZM97.875 37.6875C95.3438 37.5469 92.6719 37.5469 90 37.5469C87.3281 37.5469 84.6563 37.5469 82.125 37.6875C84.6563 34.3125 87.3281 31.2187 90 28.2656C92.6719 31.2187 95.3438 34.4531 97.875 37.6875ZM57.5156 10.4063C58.6406 9.70313 60.0469 9.42187 61.5937 9.42187C68.4844 9.42187 77.0625 15.0469 85.5 23.4844C81.4219 27.8438 77.4844 32.7656 73.5469 38.25C66.9375 38.8125 60.6094 39.7969 54.7031 41.2031C54 38.6719 53.5781 36.1406 53.1562 33.6094C51.1875 21.6562 52.7344 13.2188 57.5156 10.4063V10.4063ZM50.2031 84.5156C34.4531 80.0156 25.0312 73.125 25.0312 66.7969C25.0312 61.3125 31.5 55.8281 42.8906 51.4688C45.1406 50.625 47.6719 49.7813 50.2031 49.0781C52.0313 54.8438 54.2812 60.75 57.0937 66.7969C54.2812 72.8438 51.8906 78.8906 50.2031 84.5156V84.5156ZM53.1562 99.9844C53.5781 97.5937 54.1406 95.0625 54.7031 92.3906C60.6094 93.6562 66.9375 94.6406 73.5469 95.3438C77.3437 100.828 81.4219 105.75 85.5 110.109C77.0625 118.406 68.4844 124.172 61.5937 124.172C60.0469 124.172 58.7813 123.891 57.5156 123.188C52.7344 120.516 51.1875 111.938 53.1562 99.9844V99.9844ZM47.25 157.922C50.3437 154.125 50.4844 149.906 48.7969 145.688C47.1094 141.469 43.5937 139.5 39.2344 139.359C34.0312 139.219 28.6875 139.359 23.4844 139.359H22.5V175.781H26.7187V162H33.3281C34.1719 162 34.875 162.281 35.2969 162.984L43.7344 176.062C43.875 176.344 44.2969 176.766 44.5781 176.766H50.0625C46.6875 171.562 43.4531 166.641 40.0781 161.578C43.0312 161.156 45.5625 160.172 47.25 157.922V157.922ZM26.7187 157.641V143.719H28.2656C31.5 143.719 34.875 143.578 38.1094 143.859C41.9063 144 44.5781 146.953 44.5781 150.75C44.5781 154.547 41.4844 157.5 37.6875 157.641C34.3125 157.781 30.9375 157.641 26.7187 157.641V157.641ZM81.1406 159.469C78.8906 149.625 69.8906 147.094 63 150.188C57.6562 152.578 55.2656 157.219 55.125 162.984C54.9844 167.344 56.25 171.281 59.625 174.234C63.4219 177.609 68.0625 178.031 72.8437 177.188C75.5156 176.625 77.9062 175.359 79.7344 173.391C79.0312 172.406 78.3281 171.422 77.625 170.578C73.6875 173.953 69.3281 175.078 64.5469 172.828C61.4531 171.281 59.9063 167.484 59.625 164.672H81.4219V162.844C81.5625 161.578 81.4219 160.453 81.1406 159.469V159.469ZM59.9062 161.719C59.4844 157.5 63.7031 153 68.3438 153C73.6875 152.859 77.0625 156.094 77.2031 161.719H59.9062ZM103.078 149.484C100.969 149.063 98.7187 148.922 96.6094 149.063C93.2344 149.344 90.2813 150.891 87.8906 153.422C88.5938 154.406 89.1563 155.391 90 156.516C90.2813 156.234 90.5625 155.953 90.8438 155.813C93.0938 153.703 95.7656 152.578 99 152.859C101.531 153 103.922 153.844 104.625 156.375C105.188 158.344 105.047 160.453 105.188 162.562C104.766 162.562 104.625 162.422 104.484 162.281C101.109 159.469 97.3125 158.906 93.2344 159.891C89.4375 160.875 87.0469 163.828 86.7656 167.625C86.4844 171.984 88.4531 175.219 92.25 176.766C94.6406 177.75 97.3125 177.75 99.8438 177.188C101.813 176.766 102.656 175.641 105.469 174.094V175.922H109.406C109.406 170.297 109.547 163.406 109.406 156.938C109.406 152.859 107.016 150.328 103.078 149.484ZM105.047 167.203C104.906 167.625 105.047 168.047 105.047 168.469C105.047 171.422 104.344 172.406 101.531 173.531C99.5625 174.234 97.4531 174.516 95.3438 173.812C92.9531 173.109 91.2656 171 91.2656 168.609C91.125 166.219 92.6719 163.828 95.0625 163.125C98.2969 162 101.25 162.703 103.922 164.672C104.766 165.375 105.328 166.078 105.047 167.203V167.203ZM126.984 153.281C130.641 152.156 134.016 152.859 136.547 155.953L136.969 156.234C137.953 155.391 138.797 154.547 139.922 153.562C139.5 153.141 139.359 152.859 139.078 152.438C135 148.078 126.984 147.516 122.063 151.031C115.172 156.094 115.313 165.937 118.688 171.141C121.922 176.062 126.563 177.75 132.047 177.047C135.281 176.625 137.953 175.078 140.062 172.406C139.078 171.562 138.094 170.719 137.109 169.734C136.828 170.016 136.688 170.156 136.547 170.437C132.75 174.656 126.422 174.234 123.047 169.734C121.078 167.062 120.656 163.969 121.219 160.875C121.5 157.359 123.328 154.547 126.984 153.281ZM156.234 172.406C155.953 172.547 155.813 172.688 155.813 172.688C154.688 173.531 153.563 173.672 152.297 173.25C151.031 172.687 150.891 171.562 150.75 170.437V154.406C150.75 154.125 150.75 154.688 150.891 153.281H156.234V149.063H150.609V142.031H146.391V149.625H142.734C142.453 149.625 142.031 149.906 142.031 150.188C141.891 151.172 142.031 151.875 142.031 153.281H146.531V171.281C146.531 173.531 147.094 175.5 149.063 176.625C151.172 177.891 155.25 177.609 157.078 176.062C157.359 175.922 157.5 175.359 157.5 175.219C157.078 174.375 156.656 173.391 156.234 172.406V172.406Z" fill="#956BBE"/>
</svg>
