<svg width="180" height="180" viewBox="0 0 180 180" fill="none" xmlns="http://www.w3.org/2000/svg">
<path d="M2.39062 138.656C1.54687 138.234 0.984375 137.25 0.984375 136.125C0.984375 134.438 2.25 133.172 3.9375 133.172C4.5 133.172 5.0625 133.312 5.48438 133.594C8.57813 135.703 11.9531 136.687 14.9063 136.687C18.1406 136.687 19.9688 135.281 19.9688 133.172V133.031C19.9688 130.5 16.4531 129.656 12.6563 128.531C7.875 127.125 2.53125 125.156 2.53125 118.969V118.828C2.53125 112.641 7.59375 108.984 14.0625 108.984C17.5781 108.984 21.0937 109.969 24.3281 111.656C25.3125 112.219 26.1562 113.203 26.1562 114.469C26.1562 116.156 24.75 117.422 23.0625 117.422C22.5 117.422 22.0781 117.281 21.5156 117C18.8438 115.594 16.1719 114.75 13.9219 114.75C10.9687 114.75 9.42188 116.156 9.42188 117.984V118.125C9.42188 120.516 12.9375 121.5 16.7344 122.766C21.5156 124.172 26.8594 126.422 26.8594 132.187V132.328C26.8594 139.219 21.5156 142.594 14.7656 142.594C10.6875 142.594 6.1875 141.328 2.39062 138.656M55.9687 125.859C55.9687 119.531 51.75 115.453 46.6875 115.453C41.625 115.453 37.2656 119.672 37.2656 125.859V126C37.2656 132.187 41.625 136.406 46.6875 136.406C51.75 136.125 55.9687 132.187 55.9687 125.859ZM30.0937 112.781C30.0937 110.672 31.6406 108.984 33.75 108.984C35.8594 108.984 37.5469 110.672 37.5469 112.781V115.031C39.9375 111.656 43.3125 108.984 48.5156 108.984C56.1094 108.984 63.5625 115.031 63.5625 125.719V125.859C63.5625 136.547 56.25 142.594 48.5156 142.594C43.1719 142.594 39.7969 139.922 37.5469 136.969V148.359C37.5469 150.469 35.8594 152.016 33.75 152.016C31.7812 152.016 30.0937 150.469 30.0937 148.359V112.781ZM66.6563 112.641C66.6563 110.531 68.2031 108.844 70.3125 108.844C72.4219 108.844 74.1094 110.531 74.1094 112.641V114.469C74.5313 111.656 79.0312 108.984 82.2656 108.984C84.6562 108.984 85.9219 110.531 85.9219 112.641C85.9219 114.609 84.6562 115.875 82.9687 116.156C77.625 117.141 73.9687 121.641 73.9687 128.109V138.797C73.9687 140.766 72.2813 142.453 70.1719 142.453C68.2031 142.453 66.5156 140.906 66.5156 138.797V112.641M89.2969 112.641C89.2969 110.531 90.9844 108.844 93.0938 108.844C95.2031 108.844 96.8906 110.531 96.8906 112.641V138.797C96.8906 140.906 95.2031 142.453 93.0938 142.453C90.9844 142.453 89.2969 140.906 89.2969 138.797V112.641ZM100.125 112.781C100.125 110.672 101.813 108.984 103.922 108.984C106.031 108.984 107.859 110.672 107.859 112.781V114.328C109.969 111.375 113.203 108.984 118.406 108.984C126 108.984 130.359 113.906 130.359 121.359V138.797C130.359 140.906 128.672 142.453 126.563 142.453C124.453 142.453 122.625 140.906 122.625 138.797V123.609C122.625 118.547 119.953 115.734 115.453 115.734C110.953 115.734 107.859 118.687 107.859 123.75V138.797C107.859 140.906 106.172 142.453 103.922 142.453C101.813 142.453 100.125 140.906 100.125 138.797V112.781ZM149.766 136.266C144.563 136.266 140.203 132.328 140.203 125.859V125.719C140.203 119.391 144.563 115.312 149.766 115.312C154.969 115.312 159.469 119.531 159.469 125.719V125.859C159.469 132.047 154.969 136.266 149.766 136.266ZM163.125 109.125C161.016 109.125 159.328 110.813 159.328 112.922V115.172C156.797 111.797 153.422 109.125 147.938 109.125C140.063 109.125 132.469 115.172 132.469 126V126.141C132.469 136.828 140.063 143.016 147.938 143.016C153.422 143.016 156.938 140.344 159.328 137.391C158.906 143.297 155.25 146.25 148.781 146.25C144.984 146.25 141.609 145.266 138.516 143.719C138.094 143.578 137.672 143.437 137.109 143.437C135.281 143.437 133.875 144.844 133.875 146.531C133.875 147.937 134.719 148.922 135.984 149.484C140.063 151.453 144.141 152.438 148.922 152.438C154.969 152.438 159.609 151.031 162.703 148.078C165.516 145.406 167.063 141.328 167.063 135.844V112.781C166.922 110.672 165.234 109.125 163.125 109.125ZM96.8906 99.9844C96.8906 101.953 95.2031 103.641 93.0938 103.641C90.9844 103.641 89.2969 101.953 89.2969 99.9844C89.2969 98.0156 90.9844 96.3281 93.0938 96.3281C95.2031 96.3281 96.8906 98.0156 96.8906 99.9844ZM116.578 75.6563C108.281 86.625 90.4219 82.9688 78.8906 83.3906C78.8906 83.3906 76.9219 83.5312 74.8125 83.8125C74.8125 83.8125 75.6563 83.5312 76.5 83.1094C84.5156 80.4375 88.3125 79.875 93.2344 77.3437C102.375 72.7031 111.516 62.7188 113.344 52.3125C109.828 62.2969 99.2813 70.875 89.5781 74.3906C82.9688 76.7813 71.0156 79.0313 71.0156 79.0313L70.5938 78.75C62.4375 74.9531 62.1562 57.6562 77.0625 52.1719C83.5312 49.7812 89.7188 51.0469 96.75 49.5C104.203 47.8125 112.922 42.3281 116.438 35.1563C120.375 46.8281 125.156 64.6875 116.578 75.6563V75.6563ZM116.719 31.7813C115.734 34.0313 114.469 36.1406 113.063 37.9688C106.875 31.7813 98.2969 27.9844 88.7344 27.9844C70.0312 27.9844 54.8437 42.8906 54.8437 61.0313C54.8437 70.5938 59.0625 79.1719 65.6719 85.2187L66.375 85.9219C65.1094 84.9375 64.9688 83.1094 65.9531 81.9844C66.9375 80.7188 68.7656 80.5781 70.0312 81.5625C71.2969 82.5469 71.4375 84.375 70.4531 85.5C69.4687 86.7656 67.6406 86.9062 66.375 85.9219L66.9375 86.3438C72.8437 91.125 80.4375 94.0781 88.7344 94.0781C106.594 94.0781 121.219 80.4375 122.484 63.4219C123.609 55.125 121.078 44.4375 116.719 31.7813M175.922 111.375H174.656V113.062H175.922C176.344 113.062 176.766 112.781 176.766 112.219C176.766 111.656 176.344 111.375 175.922 111.375V111.375ZM176.625 115.594L175.359 113.625H174.516V115.594H173.813V110.813H175.781C176.625 110.813 177.328 111.375 177.328 112.219C177.328 113.344 176.344 113.625 176.062 113.625L177.328 115.594H176.625ZM175.5 109.547C173.531 109.547 171.844 111.094 171.844 113.062C171.844 115.031 173.531 116.578 175.5 116.578C177.469 116.578 179.156 115.031 179.156 113.062C179.156 111.234 177.469 109.547 175.5 109.547ZM175.5 117.422C173.109 117.422 171.141 115.594 171.141 113.203C171.141 110.812 173.109 108.984 175.5 108.984C177.891 108.984 179.859 110.812 179.859 113.203C179.859 115.453 177.891 117.422 175.5 117.422Z" fill="#956BBE"/>
</svg>
