<svg width="180" height="180" viewBox="0 0 180 180" fill="none" xmlns="http://www.w3.org/2000/svg">
<path d="M79.3898 54.7031L84.4692 69.75L69.0398 59.4042L79.3898 54.7031ZM64.5286 61.2872L69.9806 70.6922L58.5056 64.8619L64.5286 61.2872ZM52.1072 68.625L54.7411 78.0328L46.8394 72.5751L52.1072 68.625ZM136.207 93.8362L131.316 101.362L139.971 97.4109L136.207 93.8362ZM143.921 102.492L136.021 108.51L146.938 105.688L143.921 102.492ZM124.736 20.835L130.569 33.6305L134.332 20.6479L124.736 20.835ZM95.1933 39.4622L104.415 44.3545L96.1326 44.9184L95.1933 39.4622ZM97.4489 49.4339L103.094 51.6923L98.3897 53.0086L97.4489 49.4339ZM163.308 43.0369L155.78 46.2361L161.986 47.1769L163.308 43.0369ZM160.291 52.2562L154.458 53.9508L159.164 55.6425L160.291 52.2562Z" fill="#956BBE"/>
<path d="M92.1628 66.378H110.32V68.6181H92.1628V66.378ZM92.1628 60.9962H110.32V63.2378H92.1628V60.9962ZM147.61 66.378H165.767V68.6181H147.61V66.378ZM147.61 60.9962H165.767V63.2378H147.61V60.9962ZM141.21 47.7058H111.618V45.6892H120.828C121.961 40.8334 122.185 36.1928 120.818 33.8402C120.234 32.8403 119.427 32.3734 118.275 32.3734C113.01 32.3734 110.836 37.9408 110.745 38.177L110.746 38.1756L108.858 37.4669C108.966 37.1758 111.6 30.3555 118.275 30.3555C120.139 30.3555 121.62 31.2105 122.559 32.8262C124.227 35.6908 124.031 40.6478 122.901 45.6892H139.058C141.206 39.3822 145.688 36.408 153.177 36.408V38.4259C145.06 38.4259 142.785 41.867 141.162 45.6892H149.979L149.958 47.6959L141.209 47.7072L141.21 47.7058ZM142.538 57.6705L142.552 57.6691C140.158 54.1394 139.399 51.1272 140.4 47.6959L138.344 47.7072C137.628 49.9909 137.915 53.4306 139.68 56.3838H119.149C120.398 53.8806 121.555 50.8291 122.401 47.7072H120.312C119.379 51.0189 118.069 54.2969 116.595 56.8928L116.117 57.7323L127.638 64.9844L121.153 69.2594L122.264 70.9441L129.513 66.1628L137.34 71.2717L138.414 69.5631L131.158 65.0744C131.158 65.0744 142.009 58.0263 142.547 57.6831L142.539 57.6691L142.538 57.6705ZM129.489 63.7652L120.967 58.3989L137.621 58.4031L129.489 63.7652Z" fill="#956BBE"/>
<path d="M166.518 26.2687C166.504 22.7615 165.413 7.93545 163.405 3.85311C157.96 5.9217 148.053 12.6253 145.81 19.4808C135.063 17.8762 122.948 18.0661 112.335 19.9026C110.564 12.5269 101.665 6.88217 94.9513 3.70264C92.1192 8.48107 90.8648 19.5609 91.184 27.4205L91.146 27.4444C92.392 60.4476 108.582 80.9944 129.753 93.4495C151.533 81.0042 167.095 56.7408 166.491 26.2547L166.518 26.2687V26.2687ZM148.394 19.9069L148.632 19.9505L148.393 19.9083L148.394 19.9069ZM147.039 19.6734C147.23 19.7029 147.423 19.7381 147.614 19.7705L147.039 19.672V19.6734ZM163.131 28.6509C163.69 56.1108 149.68 77.9681 130.065 89.1759C96.7738 72.5864 90.502 30.5662 96.179 8.02545C97.7582 16.6429 100.624 22.0486 106.83 24.6994C120.344 20.8322 138.949 20.5256 152.654 24.3056C158.365 20.153 160.58 13.8094 161.789 8.26873C163.299 14.7178 163.125 28.6467 163.131 28.6495V28.6509ZM177.332 123.657C173.914 119.832 167.214 118.021 161.622 118.155C157.652 113.43 134.636 89.1914 134.636 89.1914L133.041 91.2009L160.829 121.116L162.034 121.012C169.584 120.365 173.874 124.46 175.012 125.731C175.844 126.662 176.348 127.513 176.621 128.178H161.349C126.319 109.9 95.5645 97.0101 62.8945 94.2018C62.9648 89.6554 63.7748 84.5086 65.3273 78.7739L62.3235 77.9583C60.726 83.8547 59.8851 89.1928 59.7909 93.9642C56.3863 93.7392 52.9593 93.6211 49.5028 93.6211C46.5721 93.6211 43.9031 93.8939 41.4674 94.3664C38.2921 91.1939 35.5865 88.169 33.2873 85.2975C48.4607 69.4884 73.5201 55.2009 95.2312 49.9472L94.5253 46.9054C71.1463 52.5431 45.5568 67.8909 31.296 82.7156C24.6782 73.7831 22.0528 66.4551 21.2737 60.9004C20.2893 53.8847 21.9628 47.4483 26.1154 42.2887C32.6179 34.2112 41.8556 33.6431 51.3534 35.2406C51.1678 36.7411 51.3646 38.174 51.9665 39.0614C54.4781 42.7711 67.9781 44.0747 76.0373 40.4803C70.0888 32.1469 58.0443 28.0772 54.7059 29.7084C53.6006 30.2484 52.7667 31.2398 52.1943 32.3958C48.9121 31.8094 45.651 31.372 43.2674 31.3903C34.8918 31.4508 28.4878 34.3786 23.691 40.3383C18.9843 46.184 17.0817 53.4445 18.1898 61.3336C19.2389 68.8064 22.9387 76.7531 29.1389 84.9951C28.1095 86.099 27.1139 87.1903 26.1548 88.2619C11.0418 105.173 -0.00427246 123.307 -0.00427246 126.312V127.869H19.9321L19.5834 126.022C18.4584 120.073 20.7056 112.635 25.311 107.076C28.2023 103.586 32.9906 99.6033 40.5098 97.7653C47.1965 104.29 55.7142 111.219 65.1965 117.906H80.0113V116.349C80.0113 114.591 79.1395 113.054 77.5588 112.019C75.2188 110.489 71.6048 110.278 68.286 111.41C65.122 107.886 63.3487 103.179 62.9648 97.3336C95.1201 100.18 125.876 113.165 160.575 131.293H179.669L179.92 130.042C180.276 128.26 179.305 125.873 177.324 123.657H177.332ZM22.919 105.085C18.2039 110.776 15.7049 118.295 16.2773 124.75H3.71666C6.24088 119.289 16.2928 103.501 31.1456 87.5545C33.3052 90.2103 35.5842 92.7667 37.9757 95.2158C30.6843 97.4095 25.9031 101.485 22.919 105.085Z" fill="#956BBE"/>
<path d="M16.6824 138.603V143.117H26.221V170.126H31.1288V143.119H40.666V138.603H16.6824ZM153.397 140.909L151.898 145.92L148.541 147.395V150.205H151.775V162.931C151.775 165.344 152.352 167.274 153.605 168.593C154.858 169.913 156.722 170.538 159.03 170.538C159.653 170.538 160.331 170.47 161.071 170.342L161.085 170.339C161.844 170.224 162.442 170.078 162.92 169.847L163.318 169.656V165.662L162.418 165.924C162.008 166.035 161.592 166.125 161.173 166.192H161.168C160.624 166.27 160.075 166.309 159.525 166.308C158.551 166.308 157.904 166.029 157.393 165.454C156.893 164.889 156.603 164.038 156.603 162.789V150.203H163.153V146.142H156.603V140.911H153.397V140.909ZM53.1267 145.73C49.7096 145.73 46.9168 146.841 44.9396 149.054C42.961 151.255 42.0005 154.316 42.0005 158.112C42.0005 160.573 42.4421 162.755 43.3463 164.637C44.2491 166.517 45.5569 167.994 47.2416 169.013C48.9207 170.03 50.8557 170.538 52.9833 170.538C56.4005 170.538 59.1961 169.427 61.1874 167.215H61.1902V167.212C63.1828 164.983 64.1517 161.91 64.1517 158.112C64.1517 154.406 63.1702 151.369 61.1705 149.119C59.1877 146.869 56.4413 145.73 53.1267 145.73V145.73ZM79.598 145.73C78.0427 145.73 76.6027 146.063 75.316 146.735L75.3132 146.738C74.4371 147.202 73.8661 147.971 73.2502 148.693L72.7889 146.142H68.7193V170.126H73.5441V157.578C73.5441 154.731 74.0503 152.777 74.88 151.705C75.7336 150.605 77.0386 150.04 79.0397 150.04C80.5444 150.04 81.4978 150.434 82.1082 151.152H82.111L82.1138 151.155C82.7311 151.872 83.0982 153.035 83.0982 154.734V170.126H87.9216V156.815C87.9216 154.369 88.4194 152.657 89.2828 151.619C90.1449 150.583 91.4653 150.04 93.4594 150.04C94.95 150.04 95.8978 150.432 96.5082 151.152L96.511 151.155C97.1283 151.871 97.4953 153.035 97.4953 154.734V170.126H102.32V154.692C102.32 151.705 101.662 149.409 100.205 147.918C98.7778 146.432 96.6502 145.73 93.9755 145.73C92.2444 145.73 90.661 146.096 89.2744 146.841C88.1761 147.431 87.4238 148.344 86.7249 149.289C85.396 146.98 82.9477 145.73 79.598 145.73V145.73ZM117.89 145.73C114.382 145.73 111.548 146.837 109.579 149.057H109.576C107.622 151.276 106.681 154.387 106.681 158.276C106.681 162.071 107.609 165.114 109.536 167.291L109.538 167.293L109.54 167.296C111.48 169.459 114.252 170.538 117.665 170.538C120.039 170.538 122.053 170.133 123.694 169.282L124.073 169.088V164.584L123.103 164.981C121.198 165.762 119.363 166.143 117.582 166.143C115.543 166.143 114.148 165.503 113.155 164.195C112.171 162.881 111.631 160.915 111.631 158.236C111.631 155.402 112.195 153.373 113.202 152.089C114.209 150.805 115.663 150.162 117.807 150.162C118.425 150.162 119.164 150.258 120.019 150.455H120.025L120.029 150.458C120.887 150.642 121.674 150.877 122.389 151.164L123.062 151.435L124.573 147.263L124.02 146.981C123.317 146.62 122.415 146.337 121.292 146.096C120.174 145.853 119.033 145.731 117.889 145.73H117.89ZM137.235 145.772C135.842 145.772 134.45 145.949 133.062 146.306H133.059C131.736 146.646 130.458 147.145 129.256 147.793L128.707 148.09L130.268 151.986L130.947 151.657C133.258 150.535 135.291 149.998 137.028 149.998C138.585 149.998 139.565 150.38 140.15 151.038L140.151 151.046L140.157 151.048C140.759 151.704 141.124 152.817 141.124 154.487V155.207L137.974 155.308C134.255 155.42 131.401 156.071 129.407 157.379C127.412 158.687 126.356 160.712 126.356 163.18C126.356 165.447 127.056 167.324 128.479 168.622L128.481 168.626C129.909 169.916 131.868 170.539 134.227 170.539C135.972 170.539 137.461 170.283 138.693 169.736L138.696 169.733C139.666 169.294 140.57 168.341 141.479 167.371L142.061 170.127H145.866V154.013C145.866 151.262 145.18 149.116 143.686 147.748C142.217 146.388 140.03 145.771 137.235 145.771V145.772ZM53.0241 150.04C55.1349 150.04 56.5763 150.691 57.5944 152.012L57.5972 152.014L57.6 152.017C58.6308 153.328 59.2017 155.337 59.2017 158.112C59.2017 160.916 58.6294 162.956 57.5944 164.295C56.5749 165.617 55.1475 166.267 53.0663 166.267C50.985 166.267 49.5535 165.614 48.5339 164.278C47.5116 162.94 46.9491 160.903 46.9491 158.112C46.9491 155.292 47.5088 153.263 48.5114 151.971C49.5141 150.677 50.94 150.04 53.0241 150.04V150.04ZM141.041 159.051V160.359C141.041 162.324 140.496 163.728 139.427 164.751L139.424 164.754C138.364 165.777 136.905 166.308 134.906 166.308C133.674 166.308 132.815 166.021 132.217 165.512C131.642 165.012 131.345 164.316 131.345 163.219C131.345 161.819 131.799 160.961 132.805 160.337H132.808C133.826 159.7 135.692 159.258 138.35 159.164H138.353L141.041 159.051V159.051Z" fill="#956BBE"/>
</svg>
