<svg width="180" height="180" viewBox="0 0 180 180" fill="none" xmlns="http://www.w3.org/2000/svg">
<path d="M5.14118 63.3416C5.14118 63.3416 0.884464 60.2605 5.999 56.1514L17.9071 45.4724C17.9071 45.4724 21.3187 41.8738 24.9229 45.0111L134.857 128.441V168.449C134.857 168.449 134.802 174.732 126.761 174.04L5.14118 63.3416Z" fill="#956BBE"/>
<path d="M33.4813 89.1265L5.14116 114.949C5.14116 114.949 2.23022 117.119 5.14116 121.003L18.298 132.994C18.298 132.994 21.4227 136.362 26.0437 132.533L56.0798 109.699L33.4813 89.1265ZM83.2274 89.3403L135.193 49.5645L134.856 9.77185C134.856 9.77185 132.637 1.08685 125.234 5.61075L56.0798 68.6965L83.2274 89.3403Z" fill="#956BBE"/>
<path d="M126.759 174.09C129.776 177.187 133.435 176.171 133.435 176.171L173.931 156.171C179.116 152.627 178.39 148.233 178.39 148.233V28.7789C178.39 23.5265 173.029 21.7139 173.029 21.7139L137.928 4.7531C130.26 0.001378 125.234 5.61091 125.234 5.61091C125.234 5.61091 131.693 0.946378 134.857 9.77341V167.719C134.857 168.806 134.626 169.871 134.165 170.833C133.242 172.706 131.231 174.447 126.425 173.717L126.759 174.09Z" fill="#956BBE"/>
</svg>
