<svg width="46" height="46" viewBox="0 0 46 46" fill="none" xmlns="http://www.w3.org/2000/svg">
<g id="Whatsapp" clip-path="url(#clip0_30_56)">
<g id="Whatsapp_2">
<path id="Ellipse 30 (Stroke)" fill-rule="evenodd" clip-rule="evenodd" d="M23 44.0833C34.644 44.0833 44.0833 34.644 44.0833 23C44.0833 11.356 34.644 1.91667 23 1.91667C11.356 1.91667 1.91667 11.356 1.91667 23C1.91667 34.644 11.356 44.0833 23 44.0833ZM23 46C35.7025 46 46 35.7025 46 23C46 10.2975 35.7025 0 23 0C10.2975 0 0 10.2975 0 23C0 35.7025 10.2975 46 23 46Z" fill="black"/>
<g id="Group 125">
<path id="Vector" d="M23.8114 34.3059C22.6937 34.1942 21.4641 34.3059 20.3464 33.8588C18.558 33.0764 16.7695 33.0764 14.9811 34.1941C14.534 34.4177 13.9752 34.753 13.5281 34.1941C13.1927 33.8588 13.4163 33.2999 13.5281 32.9646C14.534 30.7291 13.9752 28.8289 13.0809 26.5934C11.2925 22.2341 11.5161 17.9867 14.9811 14.4099C18.4462 10.9448 22.8054 10.3859 27.3882 11.6155C28.8413 12.0626 30.0709 12.9567 31.1886 14.0745C36.5539 19.7751 36.7774 29.3878 28.506 33.4117C26.9411 34.1942 25.3763 34.1942 23.8114 34.3059ZM14.9811 32.8529C17.3284 31.0644 19.5639 32.294 21.7995 32.6293C25.0409 33.0764 28.1707 32.9646 30.8533 30.5056C33.6477 27.8229 34.4301 23.2401 33.0888 19.5515C31.4122 14.9687 27.6118 12.5097 23.3643 12.5097C18.4462 12.5097 13.3045 16.5336 13.5281 21.3399C13.6398 23.2401 13.7516 25.1403 14.7576 26.8169C15.8753 28.6053 16.0989 30.3938 14.9811 32.8529Z" fill="black"/>
<path id="Vector_2" d="M24.4821 25.2521C24.5939 25.1403 24.8175 25.0285 24.9292 24.9168C25.3763 24.2461 25.5999 23.3519 26.7176 23.5754C27.7236 23.9108 28.6178 24.6932 28.9532 25.6992C29.2885 26.7051 28.6178 27.3758 27.9472 27.9347C26.4941 29.0524 25.041 28.7171 23.6997 28.0465C20.6818 26.3698 19.0051 23.5754 17.9991 20.3339C17.6638 19.1044 18.1109 18.0984 19.3404 17.4278C20.1229 16.9807 20.7935 16.9807 21.2406 17.6513C21.9113 18.5455 23.3644 19.328 22.1348 20.781C21.576 21.4517 21.7995 22.1224 22.2466 22.6812C22.8055 23.6872 23.3644 24.6932 24.4821 25.2521Z" fill="black"/>
</g>
</g>
</g>
<defs>
<clipPath id="clip0_30_56">
<rect width="46" height="46" fill="white"/>
</clipPath>
</defs>
</svg>
